HIERARCHY
ROOT Hips
{
 OFFSET 0.000000 0.000000 0.000000
 CHANNELS 6 Xposition Yposition Zposition Yrotation Xrotation Zrotation
 JOINT Chest
 {
  OFFSET 0.000000 7.059336 -5.247920
  CHANNELS 3 Yrotation Xrotation Zrotation
  JOINT Chest2
  {
   OFFSET 0.000000 7.260249 -0.012334
   CHANNELS 3 Yrotation Xrotation Zrotation
   JOINT Chest3
   {
    OFFSET 0.000000 10.373451 0.006373
    CHANNELS 3 Yrotation Xrotation Zrotation
    JOINT Chest4
    {
     OFFSET 0.000000 10.698336 0.007009
     CHANNELS 3 Yrotation Xrotation Zrotation
     JOINT Neck
     {
      OFFSET 0.000000 17.611717 -0.005949
      CHANNELS 3 Yrotation Xrotation Zrotation
      JOINT Head
      {
       OFFSET 0.000000 10.428166 0.000000
       CHANNELS 3 Yrotation Xrotation Zrotation
       End Site
       {
        OFFSET 0.000000 15.755040 0.000000
       }
      }
     }
     JOINT RightCollar
     {
      OFFSET -2.953024 10.997740 -0.002975
      CHANNELS 3 Yrotation Xrotation Zrotation
      JOINT RightShoulder
      {
       OFFSET -16.231945 0.000000 0.000000
       CHANNELS 3 Yrotation Xrotation Zrotation
       JOINT RightElbow
       {
        OFFSET -24.272403 0.000000 0.000000
        CHANNELS 3 Yrotation Xrotation Zrotation
        JOINT RightWrist
        {
         OFFSET -24.375950 0.000000 0.000000
         CHANNELS 3 Yrotation Xrotation Zrotation
         End Site
         {
          OFFSET -17.561513 0.650067 0.097025
         }
        }
       }
      }
     }
     JOINT LeftCollar
     {
      OFFSET 2.953024 10.997740 -0.002975
      CHANNELS 3 Yrotation Xrotation Zrotation
      JOINT LeftShoulder
      {
       OFFSET 16.231945 0.000000 0.000000
       CHANNELS 3 Yrotation Xrotation Zrotation
       JOINT LeftElbow
       {
        OFFSET 24.272403 0.000000 0.000000
        CHANNELS 3 Yrotation Xrotation Zrotation
        JOINT LeftWrist
        {
         OFFSET 24.375950 0.000000 0.000000
         CHANNELS 3 Yrotation Xrotation Zrotation
         End Site
         {
          OFFSET 17.561513 0.650067 0.097025
         }
        }
       }
      }
     }
    }
   }
  }
 }
 JOINT RightHip
 {
  OFFSET -7.581765 -0.018494 0.002929
  CHANNELS 3 Yrotation Xrotation Zrotation
  JOINT RightKnee
  {
   OFFSET 0.000000 -40.828213 0.001904
   CHANNELS 3 Yrotation Xrotation Zrotation
   JOINT RightAnkle
   {
    OFFSET 0.000000 -40.992668 0.003210
    CHANNELS 3 Yrotation Xrotation Zrotation
    JOINT RightToe
    {
     OFFSET 0.000000 -5.374198 13.684677
     CHANNELS 3 Yrotation Xrotation Zrotation
     End Site
     {
      OFFSET 0.000000 -1.226226 6.636092
     }
    }
   }
  }
 }
 JOINT LeftHip
 {
  OFFSET 7.581765 -0.020689 0.003277
  CHANNELS 3 Yrotation Xrotation Zrotation
  JOINT LeftKnee
  {
   OFFSET 0.000000 -40.828213 0.001904
   CHANNELS 3 Yrotation Xrotation Zrotation
   JOINT LeftAnkle
   {
    OFFSET 0.000000 -40.992668 0.003210
    CHANNELS 3 Yrotation Xrotation Zrotation
    JOINT LeftToe
    {
     OFFSET 0.000000 -5.374198 13.684677
     CHANNELS 3 Yrotation Xrotation Zrotation
     End Site
     {
      OFFSET 0.000000 -1.226226 6.636092
     }
    }
   }
  }
 }
}
MOTION
Frames: 10
Frame Time: 0.004167
0.000000 88.471226 0.000000 0.000000 0.000000 0.000000 0.000000 0.000000 0.000000 0.000000 0.000000 0.000000 0.000000 0.000000 0.000000 0.000000 0.000000 0.000000 0.000000 0.000000 0.000000 0.000000 0.000000 0.000000 0.000000 0.000000 0.000000 0.000000 0.000000 0.000000 0.000000 0.000000 0.000000 0.000000 0.000000 0.000000 0.000000 0.000000 0.000000 0.000000 0.000000 0.000000 0.000000 0.000000 0.000000 0.000000 0.000000 0.000000 0.000000 0.000000 0.000000 0.000000 0.000000 0.000000 0.000000 0.000000 0.000000 0.000000 0.000000 0.000000 0.000000 0.000000 0.000000 0.000000 0.000000 0.000000 0.000000 0.000000 0.000000 0.000000 0.000000 0.000000
-398.869033 88.362397 -198.467942 161.929883 10.852085 -0.711260 0.350105 -0.681320 -0.196938 0.187116 -13.798101 -0.101223 0.126804 -0.657821 -0.042359 0.034108 9.311369 -0.012262 2.475365 -2.986117 -0.171649 4.611775 -5.537710 -0.422283 1.705000 -3.800919 10.466011 0.356356 -6.470224 77.618082 5.170388 3.704720 1.417385 -3.410909 4.910987 -2.033998 0.100513 -4.358327 -10.974531 -1.118745 -2.038008 -75.431407 -4.246903 -6.985120 -2.790787 2.251779 -3.818971 -1.605518 -0.172057 -9.047131 -1.335698 0.645811 -0.056887 -0.144880 -4.226448 -2.966373 3.876122 0.000000 -0.000000 -0.000000 17.267858 -6.117429 -1.096721 1.087882 -4.144023 0.399867 -7.074479 -1.951026 -4.659605 -0.000000 0.000000 0.000000
-398.878246 88.364062 -198.464226 161.935549 10.841394 -0.718796 0.345818 -0.672583 -0.185338 0.183929 -13.795539 -0.095489 0.124674 -0.655262 -0.038830 0.033676 9.312102 -0.011241 2.472666 -2.990237 -0.172610 4.606826 -5.545336 -0.424103 1.701690 -3.796531 10.446647 0.358486 -6.471780 77.629196 5.173498 3.702655 1.416882 -3.407383 4.910637 -2.033483 0.094379 -4.354917 -10.963773 -1.147265 -2.045071 -75.467511 -4.257527 -6.999385 -2.761072 2.248808 -3.839223 -1.512768 -0.184466 -9.025928 -1.338430 0.649732 -0.085081 -0.129930 -4.221430 -2.953419 3.865957 -0.000000 0.000000 -0.000000 17.231097 -6.108904 -1.072185 1.143690 -4.155202 0.368399 -7.107455 -1.922397 -4.651991 -0.000000 -0.000000 -0.000000
-398.887578 88.365730 -198.460548 161.941554 10.830397 -0.726521 0.341293 -0.663780 -0.173453 0.180600 -13.792967 -0.089612 0.122449 -0.652686 -0.035223 0.033221 9.312839 -0.010197 2.470029 -2.994193 -0.173688 4.601995 -5.552654 -0.426137 1.698445 -3.792040 10.426910 0.360232 -6.473326 77.640335 5.176667 3.700478 1.416322 -3.403812 4.910204 -2.033054 0.088422 -4.351316 -10.952892 -1.175987 -2.051883 -75.504789 -4.269550 -7.017389 -2.729982 2.244809 -3.861825 -1.417586 -0.196878 -9.004196 -1.341100 0.652571 -0.113657 -0.114872 -4.215566 -2.940113 3.855735 -0.000000 0.000000 0.000000 17.193786 -6.100039 -1.047245 1.200030 -4.166619 0.336598 -7.140814 -1.893310 -4.644200 0.000000 0.000000 0.000000
-398.896970 88.367400 -198.456888 161.947730 10.819248 -0.734342 0.336650 -0.654944 -0.161425 0.177199 -13.790390 -0.083664 0.120175 -0.650101 -0.031576 0.032754 9.313578 -0.009142 2.467423 -2.998068 -0.174824 4.597223 -5.559819 -0.428277 1.695231 -3.787500 10.406986 0.361787 -6.474867 77.651487 5.179866 3.698245 1.415733 -3.400217 4.909730 -2.032668 0.082554 -4.347618 -10.941949 -1.204810 -2.058588 -75.542650 -4.282273 -7.037255 -2.698198 2.240288 -3.885581 -1.321181 -0.209289 -8.982197 -1.343742 0.654863 -0.142424 -0.099759 -4.209279 -2.926630 3.845486 -0.000000 0.000000 0.000000 17.156203 -6.090992 -1.022110 1.256641 -4.178143 0.304629 -7.174360 -1.863988 -4.636327 -0.000000 0.000000 -0.000000
-398.906362 88.369070 -198.453228 161.953907 10.808100 -0.742164 0.332008 -0.646108 -0.149398 0.173799 -13.787813 -0.077716 0.117901 -0.647517 -0.027930 0.032287 9.314317 -0.008087 2.464818 -3.001944 -0.175960 4.592454 -5.566985 -0.430416 1.692014 -3.782963 10.387062 0.363343 -6.476406 77.662640 5.183066 3.696012 1.415145 -3.396622 4.909257 -2.032281 0.076687 -4.343919 -10.931008 -1.233633 -2.065331 -75.580501 -4.294994 -7.057107 -2.666399 2.235761 -3.909302 -1.224766 -0.221697 -8.960197 -1.346388 0.657145 -0.171191 -0.084646 -4.202992 -2.913146 3.835240 0.000000 0.000000 -0.000000 17.118624 -6.081924 -0.996985 1.313260 -4.189643 0.272652 -7.207894 -1.834654 -4.628465 0.000000 -0.000000 0.000000
-398.915694 88.370739 -198.449549 161.959916 10.797105 -0.749892 0.327486 -0.637304 -0.137514 0.170470 -13.785241 -0.071840 0.115675 -0.644941 -0.024323 0.031832 9.315054 -0.007043 2.462184 -3.005902 -0.177036 4.587628 -5.574307 -0.432445 1.688758 -3.778483 10.367324 0.365092 -6.477949 77.673779 5.186236 3.693836 1.414586 -3.393050 4.908825 -2.031851 0.070732 -4.340316 -10.920128 -1.262353 -2.072253 -75.617751 -4.307010 -7.075072 -2.635271 2.231751 -3.931802 -1.129554 -0.234098 -8.938460 -1.349073 0.659951 -0.199768 -0.069586 -4.197129 -2.899837 3.825026 0.000000 0.000000 0.000000 17.081323 -6.072996 -0.972076 1.369625 -4.200988 0.240831 -7.241217 -1.805532 -4.620708 0.000000 0.000000 0.000000
-398.924907 88.372403 -198.445834 161.965588 10.786418 -0.757432 0.323203 -0.628564 -0.125917 0.167282 -13.782678 -0.066107 0.113544 -0.642382 -0.020795 0.031400 9.315786 -0.006022 2.459490 -3.010026 -0.177994 4.582688 -5.581941 -0.434259 1.685429 -3.774111 10.347959 0.367226 -6.479500 77.684892 5.189347 3.691772 1.414085 -3.389525 4.908476 -2.031334 0.064600 -4.336904 -10.909371 -1.290869 -2.079497 -75.653808 -4.317611 -7.089278 -2.605500 2.228793 -3.951899 -1.036763 -0.246489 -8.917249 -1.351830 0.663819 -0.227963 -0.054635 -4.192112 -2.886877 3.814874 -0.000000 0.000000 -0.000000 17.044578 -6.064369 -0.947590 1.425473 -4.212049 0.209329 -7.274133 -1.776844 -4.613150 0.000000 0.000000 -0.000000
-398.933941 88.374062 -198.442063 161.970753 10.776190 -0.764688 0.319278 -0.619923 -0.114750 0.164308 -13.780130 -0.060590 0.111557 -0.639849 -0.017386 0.031003 9.316511 -0.005036 2.456706 -3.014397 -0.178776 4.577575 -5.590039 -0.435749 1.681992 -3.769900 10.329154 0.369937 -6.481065 77.695965 5.192369 3.689877 1.413672 -3.386069 4.908252 -2.030687 0.058205 -4.333778 -10.898799 -1.319078 -2.087203 -75.688079 -4.326087 -7.097853 -2.577775 2.227429 -3.968417 -0.947611 -0.258866 -8.896829 -1.354691 0.669285 -0.255588 -0.039847 -4.188365 -2.874444 3.804811 0.000000 -0.000000 0.000000 17.008664 -6.056206 -0.923731 1.480540 -4.222695 0.178309 -7.306444 -1.748816 -4.605884 -0.000000 0.000000 0.000000
-398.942736 88.375714 -198.438219 161.975243 10.766574 -0.771566 0.315829 -0.611412 -0.104155 0.161618 -13.777601 -0.055359 0.109762 -0.637350 -0.014133 0.030653 9.317225 -0.004095 2.453802 -3.019097 -0.179323 4.572232 -5.598758 -0.436808 1.678414 -3.765903 10.311095 0.373418 -6.482649 77.706985 5.195273 3.688207 1.413374 -3.382705 4.908195 -2.029868 0.051457 -4.331034 -10.888473 -1.346879 -2.095509 -75.719971 -4.331724 -7.098929 -2.552788 2.228209 -3.980182 -0.863322 -0.271227 -8.877466 -1.357691 0.676885 -0.282452 -0.025278 -4.186310 -2.862711 3.794866 0.000000 0.000000 -0.000000 16.973856 -6.048669 -0.900705 1.534563 -4.232799 0.147935 -7.337953 -1.721671 -4.599003 0.000000 0.000000 -0.000000
